<svg width="15" height="15" viewBox="0 0 15 15" fill="none" xmlns="http://www.w3.org/2000/svg">
<path d="M0.999023 0.879883L1.18871 0.94494C2.13389 1.26914 2.60648 1.43123 2.87679 1.81714C3.14711 2.20304 3.14711 2.71563 3.14711 3.74083V5.66895C3.14711 7.75285 3.14711 8.7948 3.77626 9.44221C4.40543 10.0896 5.41804 10.0896 7.44327 10.0896H13.1715" stroke="black" stroke-linecap="round"/>
<path d="M4.93683 11.9316C5.53003 11.9316 6.01087 12.4265 6.01087 13.0368C6.01087 13.6471 5.53003 14.142 4.93683 14.142C4.34366 14.142 3.86279 13.6471 3.86279 13.0368C3.86279 12.4265 4.34366 11.9316 4.93683 11.9316Z" stroke="black"/>
<path d="M11.3814 11.9316C11.9746 11.9316 12.4555 12.4264 12.4555 13.0368C12.4555 13.6472 11.9746 14.142 11.3814 14.142C10.7883 14.142 10.3074 13.6472 10.3074 13.0368C10.3074 12.4264 10.7883 11.9316 11.3814 11.9316Z" stroke="black"/>
<path d="M7.44325 5.30054H5.29517" stroke="black" stroke-linecap="round"/>
<path d="M3.14722 3.09009H11.346C12.8174 3.09009 13.5531 3.09009 13.8715 3.58686C14.1899 4.08366 13.9 4.77947 13.3204 6.17114L13.0135 6.90793C12.7429 7.55762 12.6076 7.88247 12.3386 8.06504C12.0696 8.24753 11.7261 8.24753 11.0391 8.24753H3.14722" stroke="black"/>
</svg>
